<svg xmlns="http://www.w3.org/2000/svg" width="120" height="140" fill="none" viewBox="0 0 120 140">
  <path fill="#2E2E2E" d="M36 42.369 21.375 56.847a1.444 1.444 0 0 0 0 2.057L44.35 81.65a1.48 1.48 0 0 0 2.077 0l14.625-14.478a1.444 1.444 0 0 0 0-2.057L38.077 42.369a1.48 1.48 0 0 0-2.077 0ZM77.756 1.028 63.131 15.507a1.444 1.444 0 0 0 0 2.057L86.107 40.31a1.48 1.48 0 0 0 2.078 0l14.624-14.479a1.443 1.443 0 0 0 0-2.056L79.834 1.028a1.48 1.48 0 0 0-2.078 0Zm-4.18 78.543L58.952 94.05a1.444 1.444 0 0 0 0 2.056l22.976 22.747a1.48 1.48 0 0 0 2.077 0l14.625-14.479a1.445 1.445 0 0 0 0-2.057L75.654 79.571a1.48 1.48 0 0 0-2.078 0ZM.283 77.722a1.328 1.328 0 0 0 .214 1.856l19.871 19.636 20.882 20.673 19.804 19.628a1.36 1.36 0 0 0 1.867.205l15.022-14.878a1.314 1.314 0 0 0-.207-1.849L57.902 103.35l-20.88-20.666-19.828-19.643a1.353 1.353 0 0 0-1.867-.205L.283 77.723ZM42.04 36.39a1.328 1.328 0 0 0 .207 1.85l19.84 19.635L82.97 78.548l19.834 19.643a1.37 1.37 0 0 0 1.875.205l15.035-14.894a1.321 1.321 0 0 0-.206-1.848L99.667 62.01 78.791 41.345 58.95 21.702a1.353 1.353 0 0 0-1.867-.205L42.04 36.39Z"/>
</svg>
